<svg version="1.1" id="Layer_1" xmlns="http://www.w3.org/2000/svg" xmlns:xlink="http://www.w3.org/1999/xlink" x="0px" y="0px"
	 width="100%" viewBox="0 0 1024 1024" enable-background="new 0 0 1024 1024" xml:space="preserve">
<path fill="#000000" opacity="1.000000" stroke="none" 
	d="
M1025.000000,391.000000 
	C1025.000000,602.666687 1025.000000,813.833313 1025.000000,1025.000000 
	C683.666687,1025.000000 342.333344,1025.000000 1.000000,1025.000000 
	C1.000000,683.666687 1.000000,342.333344 1.000000,1.000000 
	C342.333344,1.000000 683.666687,1.000000 1025.000000,1.000000 
	C1025.000000,130.833328 1025.000000,260.666656 1025.000000,391.000000 
M708.445496,696.976562 
	C667.686157,718.247375 626.924622,739.514038 586.169067,760.792053 
	C576.228882,765.981750 573.402466,765.689758 565.722900,757.616821 
	C545.402039,736.254578 525.206970,714.772644 504.922058,693.376099 
	C500.696136,688.918579 499.529541,689.055969 496.336761,694.609314 
	C490.928619,704.015869 488.497681,714.372437 488.485199,725.069580 
	C488.399384,798.728577 488.700806,872.388367 488.438873,946.046387 
	C488.385529,961.051758 494.857086,965.788086 508.848907,957.526550 
	C578.404297,916.457214 648.087769,875.604797 717.714111,834.655457 
	C741.836365,820.468567 765.894348,806.172180 790.050659,792.043640 
	C795.358887,788.938965 798.306702,785.105469 798.272888,778.516052 
	C798.133728,751.357727 798.419556,724.197510 798.502441,697.037781 
	C798.539551,684.874146 798.768005,672.699524 798.340942,660.549927 
	C798.040833,652.012329 796.148560,651.199402 788.681641,655.090698 
	C762.146545,668.919189 735.616821,682.758118 708.445496,696.976562 
M256.375214,707.072632 
	C246.060471,701.808777 235.768951,696.498657 225.421921,691.299072 
	C219.628128,688.387512 217.193405,689.967285 217.005096,696.563171 
	C216.976578,697.562256 216.998978,698.562805 216.998978,699.562683 
	C216.999069,729.892090 217.117020,760.222351 216.918640,790.550415 
	C216.867599,798.354065 219.812408,803.725281 226.502304,807.700562 
	C241.457947,816.587280 256.274567,825.712036 271.052002,834.894043 
	C333.528442,873.714233 395.957672,912.610413 458.474274,951.365784 
	C460.655090,952.717712 464.524780,954.229004 465.922974,953.253113 
	C467.806610,951.938416 468.875793,948.279175 468.881378,945.623230 
	C469.031525,874.132751 469.094635,802.641541 468.863556,731.151489 
	C468.838654,723.459045 467.516418,715.631592 465.720276,708.124084 
	C464.003723,700.949280 461.201477,693.894958 453.802216,689.975159 
	C446.882568,697.629639 440.087585,705.151611 433.286652,712.668274 
	C418.989838,728.469727 404.636078,744.220154 390.421143,760.094971 
	C385.600250,765.478821 379.624512,767.127930 372.875580,765.926208 
	C369.699890,765.360779 366.591064,763.921753 363.682770,762.428894 
	C328.098541,744.163452 292.557129,725.814575 256.375214,707.072632 
M808.229797,565.271606 
	C792.734436,549.212341 777.235718,533.156250 761.746216,517.091370 
	C758.179077,513.391663 753.244507,512.680115 748.094849,515.299072 
	C699.596252,539.963806 651.021851,564.481445 602.643250,589.379578 
	C568.984314,606.702148 535.586914,624.533630 502.100342,642.190125 
	C496.533569,645.125366 495.397095,648.634094 498.070251,654.007385 
	C498.874695,655.624207 499.901581,657.199585 501.112518,658.534607 
	C524.938477,684.802063 548.777405,711.057861 572.692505,737.244019 
	C577.079651,742.047729 580.315430,742.292908 586.399292,739.115112 
	C634.929688,713.766296 683.431824,688.363220 732.010925,663.108215 
	C764.288025,646.328186 796.712524,629.831726 828.997314,613.066284 
	C840.012695,607.346069 841.194702,598.705444 832.571411,589.992065 
	C824.602234,581.939636 816.669678,573.851074 808.229797,565.271606 
M315.321259,716.156616 
	C332.304016,725.079895 349.281311,734.013672 366.272247,742.921326 
	C373.099884,746.500732 377.317657,745.497925 382.436859,739.634521 
	C400.608429,718.821350 418.855347,698.073853 437.083527,677.310120 
	C441.801575,671.935791 446.913300,666.861633 451.193298,661.160889 
	C455.528778,655.386292 454.213806,650.355103 448.109192,647.192505 
	C374.594788,609.107239 301.061279,571.058777 227.508118,533.048523 
	C222.916824,530.675842 218.444077,531.233032 214.731247,535.001648 
	C211.931595,537.843445 209.435211,540.982544 206.659882,543.849915 
	C185.688675,565.516968 164.675583,587.143372 143.689438,608.795959 
	C136.002823,616.726746 137.171051,624.038879 146.880936,629.068665 
	C202.788116,658.029175 258.694702,686.990784 315.321259,716.156616 
M838.986633,103.602219 
	C819.159546,67.542175 782.598450,49.006046 744.489075,56.202309 
	C693.559082,65.819527 664.367249,115.022324 672.823730,160.041565 
	C681.735779,207.486084 726.875366,239.322708 774.843750,231.073715 
	C834.236816,220.860046 866.399231,157.551544 838.986633,103.602219 
M554.953308,254.540466 
	C552.340515,252.776947 549.727295,251.014053 547.115051,249.249741 
	C543.554443,246.844894 539.797119,245.056030 535.557800,247.305313 
	C531.286621,249.571472 530.629150,253.543503 530.900574,257.984161 
	C532.037231,276.579956 532.889954,295.195068 534.225037,313.775909 
	C534.811523,321.937744 536.322021,329.840149 544.324158,334.826599 
	C553.180115,340.345184 561.696045,346.410034 570.353027,352.247467 
	C630.703674,392.942352 691.051575,433.641479 751.406128,474.330627 
	C753.539917,475.769104 755.734741,477.117126 757.867615,478.485809 
	C758.472534,477.808411 758.804382,477.604523 758.877258,477.331573 
	C765.218445,453.588379 771.519470,429.834473 777.885925,406.098083 
	C778.752014,402.869110 777.139404,401.351074 774.667236,399.741669 
	C761.329041,391.058411 748.097290,382.211670 734.818115,373.437469 
	C675.056641,333.949860 615.291565,294.467773 554.953308,254.540466 
M193.901138,331.289062 
	C197.566895,343.656036 210.710312,350.644501 225.081604,347.576111 
	C256.403992,340.888489 287.683258,333.998779 319.003723,327.301849 
	C351.125122,320.433655 383.276123,313.703857 415.411072,306.898773 
	C427.661499,304.304535 435.137482,296.518860 438.655975,284.836456 
	C440.747223,277.892914 437.550934,274.047424 430.184509,273.979187 
	C426.399384,273.944122 422.613647,273.973022 418.391083,273.973022 
	C413.284943,249.163055 408.126282,224.138840 402.987061,199.110611 
	C400.296509,186.007370 397.610657,172.903030 394.979889,159.787704 
	C393.532440,152.571747 387.015808,146.880035 378.410767,148.854431 
	C372.464661,150.218750 366.463409,151.341034 360.499542,152.630173 
	C330.636139,159.085434 300.774261,165.547806 270.917084,172.031815 
	C246.556381,177.322159 222.188782,182.582169 197.854218,187.990509 
	C189.261444,189.900238 184.522476,196.871155 186.194016,204.759995 
	C192.351166,233.818802 198.581848,262.862000 204.747742,291.918976 
	C206.623123,300.756805 208.378815,309.620026 210.132904,318.195770 
	C205.763336,320.200012 201.602264,321.561157 198.115997,323.919739 
	C196.128799,325.264160 195.242889,328.236420 193.901138,331.289062 
M916.216003,362.101440 
	C913.635986,361.042877 911.129761,359.725037 908.464294,358.966675 
	C886.463684,352.707001 864.464294,346.438477 842.400574,340.406860 
	C829.632019,336.916290 817.652710,343.667633 814.024109,356.306427 
	C801.930298,398.430725 789.890259,440.570770 777.976257,482.746216 
	C774.074768,496.557770 781.016724,508.828217 794.907288,512.910828 
	C816.406372,519.229675 837.950867,525.396057 859.510010,531.507629 
	C871.453247,534.893311 884.421631,528.097107 887.987610,515.978149 
	C900.497253,473.465546 912.741333,430.874481 924.976013,388.281555 
	C927.921875,378.026031 925.314392,369.276947 916.216003,362.101440 
M166.223633,399.342316 
	C161.784500,390.283203 156.508774,390.041870 150.600281,398.119446 
	C138.263397,414.985352 125.817596,431.778717 113.050728,448.319519 
	C107.833626,455.078796 106.450317,461.452240 110.477821,469.312225 
	C117.601433,483.214539 124.208496,497.381500 130.791672,510.943115 
	C126.678154,513.699829 122.583366,515.916443 119.119675,518.872498 
	C111.368683,525.487610 109.332977,536.295410 113.865120,544.400085 
	C118.867088,553.344971 128.348984,556.988770 138.566772,553.892883 
	C153.645203,549.324158 160.117767,534.404663 153.205551,520.301392 
	C146.156647,505.919128 139.391678,491.392212 132.045120,477.164734 
	C129.871124,472.954529 130.666336,470.332367 133.445618,467.098511 
	C140.705124,458.651550 147.726456,449.999573 154.818100,441.408966 
	C157.269669,438.439148 159.648499,435.409271 162.743073,431.557312 
	C166.525146,439.040955 169.729752,445.284607 172.844620,451.572754 
	C175.955704,457.853210 178.976944,464.178192 181.955719,470.315063 
	C178.247849,472.466034 174.642258,474.177856 171.460892,476.476746 
	C163.019333,482.576691 159.647461,492.666687 162.732758,501.342285 
	C165.524490,509.192444 171.322433,513.622498 179.269226,514.523376 
	C187.985184,515.511414 195.683182,512.444336 201.456238,505.712006 
	C209.360413,496.494446 208.744003,486.859833 203.465958,476.278503 
	C190.860001,451.006287 178.882355,425.420624 166.223633,399.342316 
M316.613068,439.086670 
	C302.686157,448.051392 288.630951,456.824371 274.867310,466.033142 
	C260.260986,475.805725 245.848541,485.875214 231.517990,496.049683 
	C224.904663,500.745087 227.793503,504.984924 233.631317,507.010864 
	C241.720596,509.818207 248.199448,505.852844 254.465942,501.876770 
	C328.593719,454.843475 402.673492,407.734589 476.732605,360.593292 
	C485.251648,355.170654 493.650024,349.546356 501.907318,343.735596 
	C503.418915,342.671844 505.127106,339.869354 504.688751,338.555298 
	C504.119781,336.849640 501.678772,335.259064 499.717255,334.618774 
	C492.641479,332.309235 486.757263,335.935791 481.107208,339.357239 
	C426.463745,372.446808 371.877014,405.630127 316.613068,439.086670 
M596.500000,88.067101 
	C611.810791,88.051498 627.122009,88.093887 642.432129,87.987114 
	C647.419495,87.952332 650.637512,85.069878 651.002441,80.820503 
	C651.404602,76.138428 649.205750,73.140488 644.313599,71.940308 
	C642.566589,71.511734 640.743958,71.167282 638.955383,71.165565 
	C597.516357,71.125702 556.077332,71.128166 514.638306,71.172989 
	C512.671082,71.175110 510.652435,71.436501 508.747467,71.926163 
	C503.524109,73.268776 500.757141,79.025940 503.307922,83.609444 
	C505.258331,87.114059 508.636444,88.120789 512.621826,88.108269 
	C540.247681,88.021439 567.873901,88.065788 596.500000,88.067101 
M601.500061,134.850494 
	C591.670959,134.851608 581.841797,134.845078 572.012695,134.856171 
	C563.516541,134.865768 555.020325,134.873962 546.524353,134.925873 
	C542.704468,134.949203 540.226868,137.057709 539.139221,140.523712 
	C538.083679,143.887558 539.846619,146.621475 542.639343,148.006104 
	C545.501343,149.425140 548.811584,150.683731 551.936951,150.710983 
	C577.923767,150.937698 603.913269,150.870285 629.901917,150.858795 
	C631.216492,150.858215 632.551575,150.650894 633.841919,150.375290 
	C639.745911,149.114349 642.477478,146.125961 641.966797,141.584167 
	C641.486267,137.310013 638.226807,134.938934 632.486694,134.901062 
	C622.491516,134.835083 612.495667,134.862061 601.500061,134.850494 
M656.019043,201.079941 
	C654.950623,197.385101 652.183289,195.691620 648.644775,195.519882 
	C643.851379,195.287262 639.014465,195.180054 634.239197,195.559982 
	C629.391418,195.945709 626.866943,199.197723 626.988953,203.906906 
	C627.113464,208.709488 630.111694,211.768356 635.168396,211.982803 
	C638.811768,212.137299 642.466492,212.059891 646.115723,212.032791 
	C653.639771,211.976913 656.135254,209.436783 656.019043,201.079941 
z"/>
<path fill="#00FEFE" opacity="1.000000" stroke="none" 
	d="
M708.765259,696.784851 
	C735.616821,682.758118 762.146545,668.919189 788.681641,655.090698 
	C796.148560,651.199402 798.040833,652.012329 798.340942,660.549927 
	C798.768005,672.699524 798.539551,684.874146 798.502441,697.037781 
	C798.419556,724.197510 798.133728,751.357727 798.272888,778.516052 
	C798.306702,785.105469 795.358887,788.938965 790.050659,792.043640 
	C765.894348,806.172180 741.836365,820.468567 717.714111,834.655457 
	C648.087769,875.604797 578.404297,916.457214 508.848907,957.526550 
	C494.857086,965.788086 488.385529,961.051758 488.438873,946.046387 
	C488.700806,872.388367 488.399384,798.728577 488.485199,725.069580 
	C488.497681,714.372437 490.928619,704.015869 496.336761,694.609314 
	C499.529541,689.055969 500.696136,688.918579 504.922058,693.376099 
	C525.206970,714.772644 545.402039,736.254578 565.722900,757.616821 
	C573.402466,765.689758 576.228882,765.981750 586.169067,760.792053 
	C626.924622,739.514038 667.686157,718.247375 708.765259,696.784851 
z"/>
<path fill="#00FFFF" opacity="1.000000" stroke="none" 
	d="
M256.689941,707.279968 
	C292.557129,725.814575 328.098541,744.163452 363.682770,762.428894 
	C366.591064,763.921753 369.699890,765.360779 372.875580,765.926208 
	C379.624512,767.127930 385.600250,765.478821 390.421143,760.094971 
	C404.636078,744.220154 418.989838,728.469727 433.286652,712.668274 
	C440.087585,705.151611 446.882568,697.629639 453.802216,689.975159 
	C461.201477,693.894958 464.003723,700.949280 465.720276,708.124084 
	C467.516418,715.631592 468.838654,723.459045 468.863556,731.151489 
	C469.094635,802.641541 469.031525,874.132751 468.881378,945.623230 
	C468.875793,948.279175 467.806610,951.938416 465.922974,953.253113 
	C464.524780,954.229004 460.655090,952.717712 458.474274,951.365784 
	C395.957672,912.610413 333.528442,873.714233 271.052002,834.894043 
	C256.274567,825.712036 241.457947,816.587280 226.502304,807.700562 
	C219.812408,803.725281 216.867599,798.354065 216.918640,790.550415 
	C217.117020,760.222351 216.999069,729.892090 216.998978,699.562683 
	C216.998978,698.562805 216.976578,697.562256 217.005096,696.563171 
	C217.193405,689.967285 219.628128,688.387512 225.421921,691.299072 
	C235.768951,696.498657 246.060471,701.808777 256.689941,707.279968 
z"/>
<path fill="#00FEFE" opacity="1.000000" stroke="none" 
	d="
M808.475403,565.525024 
	C816.669678,573.851074 824.602234,581.939636 832.571411,589.992065 
	C841.194702,598.705444 840.012695,607.346069 828.997314,613.066284 
	C796.712524,629.831726 764.288025,646.328186 732.010925,663.108215 
	C683.431824,688.363220 634.929688,713.766296 586.399292,739.115112 
	C580.315430,742.292908 577.079651,742.047729 572.692505,737.244019 
	C548.777405,711.057861 524.938477,684.802063 501.112518,658.534607 
	C499.901581,657.199585 498.874695,655.624207 498.070251,654.007385 
	C495.397095,648.634094 496.533569,645.125366 502.100342,642.190125 
	C535.586914,624.533630 568.984314,606.702148 602.643250,589.379578 
	C651.021851,564.481445 699.596252,539.963806 748.094849,515.299072 
	C753.244507,512.680115 758.179077,513.391663 761.746216,517.091370 
	C777.235718,533.156250 792.734436,549.212341 808.475403,565.525024 
z"/>
<path fill="#00FEFE" opacity="1.000000" stroke="none" 
	d="
M314.961365,716.054321 
	C258.694702,686.990784 202.788116,658.029175 146.880936,629.068665 
	C137.171051,624.038879 136.002823,616.726746 143.689438,608.795959 
	C164.675583,587.143372 185.688675,565.516968 206.659882,543.849915 
	C209.435211,540.982544 211.931595,537.843445 214.731247,535.001648 
	C218.444077,531.233032 222.916824,530.675842 227.508118,533.048523 
	C301.061279,571.058777 374.594788,609.107239 448.109192,647.192505 
	C454.213806,650.355103 455.528778,655.386292 451.193298,661.160889 
	C446.913300,666.861633 441.801575,671.935791 437.083527,677.310120 
	C418.855347,698.073853 400.608429,718.821350 382.436859,739.634521 
	C377.317657,745.497925 373.099884,746.500732 366.272247,742.921326 
	C349.281311,734.013672 332.304016,725.079895 314.961365,716.054321 
z"/>
<path fill="#00FEFE" opacity="1.000000" stroke="none" 
	d="
M839.115601,103.954712 
	C866.399231,157.551544 834.236816,220.860046 774.843750,231.073715 
	C726.875366,239.322708 681.735779,207.486084 672.823730,160.041565 
	C664.367249,115.022324 693.559082,65.819527 744.489075,56.202309 
	C782.598450,49.006046 819.159546,67.542175 839.115601,103.954712 
M756.975098,82.834015 
	C756.661133,84.286255 756.199097,85.724060 756.055908,87.192940 
	C754.365967,104.522636 752.733276,121.857903 751.061462,139.189392 
	C750.688110,143.060333 751.045654,146.735596 755.128662,148.435089 
	C770.042297,154.642639 784.963684,160.840027 800.006165,166.724213 
	C804.644653,168.538620 809.528198,166.114532 810.808411,162.290817 
	C812.172058,158.218033 810.042236,154.311768 805.190186,152.047440 
	C804.300781,151.632370 803.354370,151.341049 802.443970,150.968964 
	C790.607056,146.131088 778.771790,141.288986 767.086426,136.509399 
	C767.618103,131.393936 768.122559,126.781006 768.572632,122.162758 
	C769.730103,110.285950 770.881165,98.408447 771.996948,86.527664 
	C772.394409,82.294991 771.197144,78.828163 766.631348,77.725800 
	C762.480713,76.723671 759.184265,78.139221 756.975098,82.834015 
z"/>
<path fill="#00FEFE" opacity="1.000000" stroke="none" 
	d="
M555.240540,254.762070 
	C615.291565,294.467773 675.056641,333.949860 734.818115,373.437469 
	C748.097290,382.211670 761.329041,391.058411 774.667236,399.741669 
	C777.139404,401.351074 778.752014,402.869110 777.885925,406.098083 
	C771.519470,429.834473 765.218445,453.588379 758.877258,477.331573 
	C758.804382,477.604523 758.472534,477.808411 757.867615,478.485809 
	C755.734741,477.117126 753.539917,475.769104 751.406128,474.330627 
	C691.051575,433.641479 630.703674,392.942352 570.353027,352.247467 
	C561.696045,346.410034 553.180115,340.345184 544.324158,334.826599 
	C536.322021,329.840149 534.811523,321.937744 534.225037,313.775909 
	C532.889954,295.195068 532.037231,276.579956 530.900574,257.984161 
	C530.629150,253.543503 531.286621,249.571472 535.557800,247.305313 
	C539.797119,245.056030 543.554443,246.844894 547.115051,249.249741 
	C549.727295,251.014053 552.340515,252.776947 555.240540,254.762070 
z"/>
<path fill="#00FDFD" opacity="1.000000" stroke="none" 
	d="
M193.881104,330.882385 
	C195.242889,328.236420 196.128799,325.264160 198.115997,323.919739 
	C201.602264,321.561157 205.763336,320.200012 210.132904,318.195770 
	C208.378815,309.620026 206.623123,300.756805 204.747742,291.918976 
	C198.581848,262.862000 192.351166,233.818802 186.194016,204.759995 
	C184.522476,196.871155 189.261444,189.900238 197.854218,187.990509 
	C222.188782,182.582169 246.556381,177.322159 270.917084,172.031815 
	C300.774261,165.547806 330.636139,159.085434 360.499542,152.630173 
	C366.463409,151.341034 372.464661,150.218750 378.410767,148.854431 
	C387.015808,146.880035 393.532440,152.571747 394.979889,159.787704 
	C397.610657,172.903030 400.296509,186.007370 402.987061,199.110611 
	C408.126282,224.138840 413.284943,249.163055 418.391083,273.973022 
	C422.613647,273.973022 426.399384,273.944122 430.184509,273.979187 
	C437.550934,274.047424 440.747223,277.892914 438.655975,284.836456 
	C435.137482,296.518860 427.661499,304.304535 415.411072,306.898773 
	C383.276123,313.703857 351.125122,320.433655 319.003723,327.301849 
	C287.683258,333.998779 256.403992,340.888489 225.081604,347.576111 
	C210.710312,350.644501 197.566895,343.656036 193.881104,330.882385 
M382.896637,181.725174 
	C381.708893,176.273056 380.521118,170.820953 379.298859,165.210495 
	C320.440613,178.008911 261.779785,190.764389 202.502914,203.653839 
	C210.387619,240.894226 218.238144,277.973114 226.117218,315.186890 
	C285.137970,302.571686 343.564545,290.083496 402.554321,277.474884 
	C395.980743,245.606064 389.479675,214.088623 382.896637,181.725174 
z"/>
<path fill="#00FDFD" opacity="1.000000" stroke="none" 
	d="
M916.521118,362.307129 
	C925.314392,369.276947 927.921875,378.026031 924.976013,388.281555 
	C912.741333,430.874481 900.497253,473.465546 887.987610,515.978149 
	C884.421631,528.097107 871.453247,534.893311 859.510010,531.507629 
	C837.950867,525.396057 816.406372,519.229675 794.907288,512.910828 
	C781.016724,508.828217 774.074768,496.557770 777.976257,482.746216 
	C789.890259,440.570770 801.930298,398.430725 814.024109,356.306427 
	C817.652710,343.667633 829.632019,336.916290 842.400574,340.406860 
	C864.464294,346.438477 886.463684,352.707001 908.464294,358.966675 
	C911.129761,359.725037 913.635986,361.042877 916.521118,362.307129 
M900.573486,411.007721 
	C901.999573,406.093414 903.495972,401.198242 904.837708,396.260986 
	C908.168823,384.002777 903.418030,375.513428 891.123535,371.993805 
	C877.174438,368.000549 863.193054,364.117645 849.197998,360.288055 
	C839.700989,357.689240 829.789673,362.902100 827.098816,372.278503 
	C819.238220,399.669189 811.496521,427.095398 803.945923,454.572998 
	C800.990601,465.327972 806.356445,474.608704 816.968628,477.704742 
	C830.412476,481.626892 843.900269,485.404968 857.415894,489.072571 
	C869.108704,492.245544 878.529846,487.343140 881.898132,475.927795 
	C888.194580,454.588287 894.125183,433.140778 900.573486,411.007721 
M838.502441,505.984344 
	C841.157837,502.760223 841.617004,498.934631 838.775269,496.151062 
	C836.856934,494.271973 833.177002,492.893616 830.636414,493.331207 
	C828.334167,493.727783 825.236938,496.646393 824.812988,498.891663 
	C824.347717,501.355255 825.847534,505.007141 827.733276,506.910583 
	C830.746094,509.951843 834.654053,509.396454 838.502441,505.984344 
z"/>
<path fill="#00FDFD" opacity="1.000000" stroke="none" 
	d="
M166.437317,399.651917 
	C178.882355,425.420624 190.860001,451.006287 203.465958,476.278503 
	C208.744003,486.859833 209.360413,496.494446 201.456238,505.712006 
	C195.683182,512.444336 187.985184,515.511414 179.269226,514.523376 
	C171.322433,513.622498 165.524490,509.192444 162.732758,501.342285 
	C159.647461,492.666687 163.019333,482.576691 171.460892,476.476746 
	C174.642258,474.177856 178.247849,472.466034 181.955719,470.315063 
	C178.976944,464.178192 175.955704,457.853210 172.844620,451.572754 
	C169.729752,445.284607 166.525146,439.040955 162.743073,431.557312 
	C159.648499,435.409271 157.269669,438.439148 154.818100,441.408966 
	C147.726456,449.999573 140.705124,458.651550 133.445618,467.098511 
	C130.666336,470.332367 129.871124,472.954529 132.045120,477.164734 
	C139.391678,491.392212 146.156647,505.919128 153.205551,520.301392 
	C160.117767,534.404663 153.645203,549.324158 138.566772,553.892883 
	C128.348984,556.988770 118.867088,553.344971 113.865120,544.400085 
	C109.332977,536.295410 111.368683,525.487610 119.119675,518.872498 
	C122.583366,515.916443 126.678154,513.699829 130.791672,510.943115 
	C124.208496,497.381500 117.601433,483.214539 110.477821,469.312225 
	C106.450317,461.452240 107.833626,455.078796 113.050728,448.319519 
	C125.817596,431.778717 138.263397,414.985352 150.600281,398.119446 
	C156.508774,390.041870 161.784500,390.283203 166.437317,399.651917 
z"/>
<path fill="#00FCFC" opacity="1.000000" stroke="none" 
	d="
M316.943604,438.936646 
	C371.877014,405.630127 426.463745,372.446808 481.107208,339.357239 
	C486.757263,335.935791 492.641479,332.309235 499.717255,334.618774 
	C501.678772,335.259064 504.119781,336.849640 504.688751,338.555298 
	C505.127106,339.869354 503.418915,342.671844 501.907318,343.735596 
	C493.650024,349.546356 485.251648,355.170654 476.732605,360.593292 
	C402.673492,407.734589 328.593719,454.843475 254.465942,501.876770 
	C248.199448,505.852844 241.720596,509.818207 233.631317,507.010864 
	C227.793503,504.984924 224.904663,500.745087 231.517990,496.049683 
	C245.848541,485.875214 260.260986,475.805725 274.867310,466.033142 
	C288.630951,456.824371 302.686157,448.051392 316.943604,438.936646 
z"/>
<path fill="#00FBFB" opacity="1.000000" stroke="none" 
	d="
M596.000000,88.067566 
	C567.873901,88.065788 540.247681,88.021439 512.621826,88.108269 
	C508.636444,88.120789 505.258331,87.114059 503.307922,83.609444 
	C500.757141,79.025940 503.524109,73.268776 508.747467,71.926163 
	C510.652435,71.436501 512.671082,71.175110 514.638306,71.172989 
	C556.077332,71.128166 597.516357,71.125702 638.955383,71.165565 
	C640.743958,71.167282 642.566589,71.511734 644.313599,71.940308 
	C649.205750,73.140488 651.404602,76.138428 651.002441,80.820503 
	C650.637512,85.069878 647.419495,87.952332 642.432129,87.987114 
	C627.122009,88.093887 611.810791,88.051498 596.000000,88.067566 
z"/>
<path fill="#00FBFB" opacity="1.000000" stroke="none" 
	d="
M602.000122,134.850281 
	C612.495667,134.862061 622.491516,134.835083 632.486694,134.901062 
	C638.226807,134.938934 641.486267,137.310013 641.966797,141.584167 
	C642.477478,146.125961 639.745911,149.114349 633.841919,150.375290 
	C632.551575,150.650894 631.216492,150.858215 629.901917,150.858795 
	C603.913269,150.870285 577.923767,150.937698 551.936951,150.710983 
	C548.811584,150.683731 545.501343,149.425140 542.639343,148.006104 
	C539.846619,146.621475 538.083679,143.887558 539.139221,140.523712 
	C540.226868,137.057709 542.704468,134.949203 546.524353,134.925873 
	C555.020325,134.873962 563.516541,134.865768 572.012695,134.856171 
	C581.841797,134.845078 591.670959,134.851608 602.000122,134.850281 
z"/>
<path fill="#00F8F8" opacity="1.000000" stroke="none" 
	d="
M656.078064,201.488739 
	C656.135254,209.436783 653.639771,211.976913 646.115723,212.032791 
	C642.466492,212.059891 638.811768,212.137299 635.168396,211.982803 
	C630.111694,211.768356 627.113464,208.709488 626.988953,203.906906 
	C626.866943,199.197723 629.391418,195.945709 634.239197,195.559982 
	C639.014465,195.180054 643.851379,195.287262 648.644775,195.519882 
	C652.183289,195.691620 654.950623,197.385101 656.078064,201.488739 
z"/>
<path fill="#000303" opacity="1.000000" stroke="none" 
	d="
M757.059204,82.438843 
	C759.184265,78.139221 762.480713,76.723671 766.631348,77.725800 
	C771.197144,78.828163 772.394409,82.294991 771.996948,86.527664 
	C770.881165,98.408447 769.730103,110.285950 768.572632,122.162758 
	C768.122559,126.781006 767.618103,131.393936 767.086426,136.509399 
	C778.771790,141.288986 790.607056,146.131088 802.443970,150.968964 
	C803.354370,151.341049 804.300781,151.632370 805.190186,152.047440 
	C810.042236,154.311768 812.172058,158.218033 810.808411,162.290817 
	C809.528198,166.114532 804.644653,168.538620 800.006165,166.724213 
	C784.963684,160.840027 770.042297,154.642639 755.128662,148.435089 
	C751.045654,146.735596 750.688110,143.060333 751.061462,139.189392 
	C752.733276,121.857903 754.365967,104.522636 756.055908,87.192940 
	C756.199097,85.724060 756.661133,84.286255 757.059204,82.438843 
z"/>
<path fill="#000101" opacity="1.000000" stroke="none" 
	d="
M382.937622,182.148163 
	C389.479675,214.088623 395.980743,245.606064 402.554321,277.474884 
	C343.564545,290.083496 285.137970,302.571686 226.117218,315.186890 
	C218.238144,277.973114 210.387619,240.894226 202.502914,203.653839 
	C261.779785,190.764389 320.440613,178.008911 379.298859,165.210495 
	C380.521118,170.820953 381.708893,176.273056 382.937622,182.148163 
z"/>
<path fill="#000101" opacity="1.000000" stroke="none" 
	d="
M900.390747,411.372986 
	C894.125183,433.140778 888.194580,454.588287 881.898132,475.927795 
	C878.529846,487.343140 869.108704,492.245544 857.415894,489.072571 
	C843.900269,485.404968 830.412476,481.626892 816.968628,477.704742 
	C806.356445,474.608704 800.990601,465.327972 803.945923,454.572998 
	C811.496521,427.095398 819.238220,399.669189 827.098816,372.278503 
	C829.789673,362.902100 839.700989,357.689240 849.197998,360.288055 
	C863.193054,364.117645 877.174438,368.000549 891.123535,371.993805 
	C903.418030,375.513428 908.168823,384.002777 904.837708,396.260986 
	C903.495972,401.198242 901.999573,406.093414 900.390747,411.372986 
z"/>
<path fill="#010707" opacity="1.000000" stroke="none" 
	d="
M838.246216,506.262238 
	C834.654053,509.396454 830.746094,509.951843 827.733276,506.910583 
	C825.847534,505.007141 824.347717,501.355255 824.812988,498.891663 
	C825.236938,496.646393 828.334167,493.727783 830.636414,493.331207 
	C833.177002,492.893616 836.856934,494.271973 838.775269,496.151062 
	C841.617004,498.934631 841.157837,502.760223 838.246216,506.262238 
z"/>
</svg>