<svg xmlns="http://www.w3.org/2000/svg" height="24" viewBox="0 -960 960 960" width="24" fill="#00FFFF">
  <path d="M240-320h320v-200H240v200Zm120-80q17 0 28.5-11.5T400-440q0-17-11.5-28.5T360-480q-17 0-28.5 11.5T320-440q0 17 11.5 28.5T360-400ZM200-240q-33 0-56.5-23.5T120-320v-200q0-33 23.5-56.5T200-600h40v-80q0-67 46.5-113.5T400-840q52 0 94 29.5T556-733l-57 24q-11-24-34-37.5T400-760q-33 0-56.5 23.5T320-680v80h240q33 0 56.5 23.5T640-520v200q0 33-23.5 56.5T560-240H200Zm520-80v-80h120v-80h-120v-80l-120 120 120 120Z"/>
</svg>
