<svg version="1.1" id="Layer_1" xmlns="http://www.w3.org/2000/svg" xmlns:xlink="http://www.w3.org/1999/xlink" x="0px" y="0px"
	 width="100%" viewBox="0 0 500 500" enable-background="new 0 0 500 500" xml:space="preserve">
<path fill="#000000" opacity="1.000000" stroke="none" 
	d="
M316.000000,501.000000 
	C210.666687,501.000000 105.833382,501.000000 1.000056,501.000000 
	C1.000037,334.333405 1.000037,167.666794 1.000019,1.000146 
	C167.666565,1.000097 334.333130,1.000097 500.999756,1.000049 
	C500.999847,167.666519 500.999847,334.333038 500.999939,500.999786 
	C439.500000,501.000000 378.000000,501.000000 316.000000,501.000000 
M226.499924,329.843475 
	C257.908600,329.843475 289.317291,329.843475 321.886566,329.843475 
	C309.629120,340.954590 298.251312,351.268311 286.673309,361.763519 
	C289.408600,364.837463 291.938629,367.680725 294.767517,370.859802 
	C340.207825,329.769928 385.515686,288.799805 430.894501,247.765564 
	C427.970490,244.563492 425.335449,241.677872 422.686096,238.776596 
	C413.382843,247.171646 404.486969,255.199051 395.423279,263.377930 
	C393.739471,262.342529 392.184418,261.419434 390.662048,260.445282 
	C359.838196,240.721878 328.990509,221.035446 298.237244,201.202606 
	C294.928314,199.068649 292.481537,198.645935 288.845490,200.846649 
	C274.475555,209.543991 259.913574,217.932327 245.263626,226.151535 
	C242.523361,227.688934 239.058304,228.617493 235.916687,228.646942 
	C213.589355,228.856125 191.257889,228.870651 168.931488,228.617218 
	C166.117020,228.585266 162.729492,227.306671 160.621109,225.452835 
	C149.487091,215.663086 138.674179,205.507919 127.759735,195.468811 
	C125.982010,193.833664 124.253517,192.145004 122.291122,190.280457 
	C135.886520,178.227234 149.017395,166.436722 162.376389,154.910614 
	C164.276749,153.270981 167.281876,152.092560 169.779755,152.085236 
	C223.936127,151.926331 278.093140,151.932190 332.249664,152.060959 
	C334.886292,152.067215 337.825287,152.971115 340.103790,154.329025 
	C352.947998,161.983688 365.633148,169.905273 378.509949,177.820343 
	C380.661011,174.304886 382.716797,170.945099 384.869934,167.426239 
	C354.320984,148.677551 323.998322,130.067764 293.531769,111.369659 
	C291.391663,114.909187 289.378204,118.239273 287.241547,121.773094 
	C296.696075,127.611984 305.787048,133.226379 316.079834,139.582977 
	C269.891693,139.582977 225.233124,139.582977 179.546585,139.582977 
	C186.950073,132.970047 193.693237,126.946930 200.576889,120.798340 
	C197.713943,117.581436 195.126694,114.674324 192.507385,111.731171 
	C165.922913,135.279526 139.652328,158.549835 113.192673,181.987640 
	C104.133522,173.687347 95.312439,165.605209 86.187958,157.245056 
	C83.423027,160.255966 80.767830,163.147354 77.970634,166.193390 
	C116.254845,201.394531 154.250488,236.330368 192.237350,271.258118 
	C208.604172,261.743835 224.796158,252.258209 241.090210,242.951279 
	C243.135544,241.783005 245.716446,240.991104 248.053604,240.980316 
	C276.714447,240.848129 305.376312,240.852310 334.037231,240.978699 
	C336.192261,240.988205 338.612091,241.767288 340.451202,242.919220 
	C354.548309,251.748917 368.535309,260.754486 382.544098,269.724823 
	C383.585388,270.391602 384.529877,271.209564 385.765564,272.143280 
	C369.375000,286.950897 353.355225,301.499847 337.189117,315.884308 
	C335.885620,317.044189 333.576935,317.555359 331.734070,317.558258 
	C277.077484,317.644531 222.420624,317.657349 167.764267,317.511322 
	C165.789505,317.506073 163.266907,316.266693 161.941696,314.768921 
	C155.873627,307.910797 150.143509,300.753723 144.288391,293.707062 
	C133.683395,280.943848 123.075844,268.182800 112.288124,255.202759 
	C109.014664,257.987183 106.050591,260.508453 103.021248,263.085266 
	C132.839920,299.020081 162.266953,334.482910 191.866653,370.153839 
	C195.220856,367.375000 198.201035,364.906006 201.261032,362.370880 
	C192.271851,351.515106 183.611938,341.056976 174.326538,329.843475 
	C192.008804,329.843475 208.754364,329.843475 226.499924,329.843475 
z"/>
<path fill="#FAFAFA" opacity="1.000000" stroke="none" 
	d="
M225.999908,329.843475 
	C208.754364,329.843475 192.008804,329.843475 174.326538,329.843475 
	C183.611938,341.056976 192.271851,351.515106 201.261032,362.370880 
	C198.201035,364.906006 195.220856,367.375000 191.866653,370.153839 
	C162.266953,334.482910 132.839920,299.020081 103.021248,263.085266 
	C106.050591,260.508453 109.014664,257.987183 112.288124,255.202759 
	C123.075844,268.182800 133.683395,280.943848 144.288391,293.707062 
	C150.143509,300.753723 155.873627,307.910797 161.941696,314.768921 
	C163.266907,316.266693 165.789505,317.506073 167.764267,317.511322 
	C222.420624,317.657349 277.077484,317.644531 331.734070,317.558258 
	C333.576935,317.555359 335.885620,317.044189 337.189117,315.884308 
	C353.355225,301.499847 369.375000,286.950897 385.765564,272.143280 
	C384.529877,271.209564 383.585388,270.391602 382.544098,269.724823 
	C368.535309,260.754486 354.548309,251.748917 340.451202,242.919220 
	C338.612091,241.767288 336.192261,240.988205 334.037231,240.978699 
	C305.376312,240.852310 276.714447,240.848129 248.053604,240.980316 
	C245.716446,240.991104 243.135544,241.783005 241.090210,242.951279 
	C224.796158,252.258209 208.604172,261.743835 192.237350,271.258118 
	C154.250488,236.330368 116.254845,201.394531 77.970634,166.193390 
	C80.767830,163.147354 83.423027,160.255966 86.187958,157.245056 
	C95.312439,165.605209 104.133522,173.687347 113.192673,181.987640 
	C139.652328,158.549835 165.922913,135.279526 192.507385,111.731171 
	C195.126694,114.674324 197.713943,117.581436 200.576889,120.798340 
	C193.693237,126.946930 186.950073,132.970047 179.546585,139.582977 
	C225.233124,139.582977 269.891693,139.582977 316.079834,139.582977 
	C305.787048,133.226379 296.696075,127.611984 287.241547,121.773094 
	C289.378204,118.239273 291.391663,114.909187 293.531769,111.369659 
	C323.998322,130.067764 354.320984,148.677551 384.869934,167.426239 
	C382.716797,170.945099 380.661011,174.304886 378.509949,177.820343 
	C365.633148,169.905273 352.947998,161.983688 340.103790,154.329025 
	C337.825287,152.971115 334.886292,152.067215 332.249664,152.060959 
	C278.093140,151.932190 223.936127,151.926331 169.779755,152.085236 
	C167.281876,152.092560 164.276749,153.270981 162.376389,154.910614 
	C149.017395,166.436722 135.886520,178.227234 122.291122,190.280457 
	C124.253517,192.145004 125.982010,193.833664 127.759735,195.468811 
	C138.674179,205.507919 149.487091,215.663086 160.621109,225.452835 
	C162.729492,227.306671 166.117020,228.585266 168.931488,228.617218 
	C191.257889,228.870651 213.589355,228.856125 235.916687,228.646942 
	C239.058304,228.617493 242.523361,227.688934 245.263626,226.151535 
	C259.913574,217.932327 274.475555,209.543991 288.845490,200.846649 
	C292.481537,198.645935 294.928314,199.068649 298.237244,201.202606 
	C328.990509,221.035446 359.838196,240.721878 390.662048,260.445282 
	C392.184418,261.419434 393.739471,262.342529 395.423279,263.377930 
	C404.486969,255.199051 413.382843,247.171646 422.686096,238.776596 
	C425.335449,241.677872 427.970490,244.563492 430.894501,247.765564 
	C385.515686,288.799805 340.207825,329.769928 294.767517,370.859802 
	C291.938629,367.680725 289.408600,364.837463 286.673309,361.763519 
	C298.251312,351.268311 309.629120,340.954590 321.886566,329.843475 
	C289.317291,329.843475 257.908600,329.843475 225.999908,329.843475 
M300.376343,217.124832 
	C295.552856,212.479828 290.838531,212.706543 285.602844,216.784958 
	C282.226990,219.414612 278.188690,221.190002 274.464722,223.377945 
	C271.881073,224.895874 269.327057,226.464325 265.818756,228.576874 
	C283.750244,228.576874 300.284607,228.576874 318.169678,228.576874 
	C311.736542,224.451904 306.353210,221.000046 300.376343,217.124832 
M209.416748,240.883652 
	C199.052048,240.883652 188.687332,240.883652 177.205673,240.883652 
	C183.316818,246.517960 188.573608,251.364594 193.844055,256.223816 
	C202.407944,251.212021 210.537811,246.454208 218.667679,241.696411 
	C218.543671,241.425491 218.419662,241.154572 218.295654,240.883652 
	C215.657425,240.883652 213.019180,240.883652 209.416748,240.883652 
z"/>
<path fill="#0E0E0E" opacity="1.000000" stroke="none" 
	d="
M300.673096,217.336517 
	C306.353210,221.000046 311.736542,224.451904 318.169678,228.576874 
	C300.284607,228.576874 283.750244,228.576874 265.818756,228.576874 
	C269.327057,226.464325 271.881073,224.895874 274.464722,223.377945 
	C278.188690,221.190002 282.226990,219.414612 285.602844,216.784958 
	C290.838531,212.706543 295.552856,212.479828 300.673096,217.336517 
z"/>
<path fill="#050505" opacity="1.000000" stroke="none" 
	d="
M209.898849,240.883652 
	C213.019180,240.883652 215.657425,240.883652 218.295654,240.883652 
	C218.419662,241.154572 218.543671,241.425491 218.667679,241.696411 
	C210.537811,246.454208 202.407944,251.212021 193.844055,256.223816 
	C188.573608,251.364594 183.316818,246.517960 177.205673,240.883652 
	C188.687332,240.883652 199.052048,240.883652 209.898849,240.883652 
z"/>
</svg>