<?xml version="1.0" encoding="UTF-8" standalone="no"?>
<!-- Created with Inkscape (http://www.inkscape.org/) -->

<svg
   version="1.1"
   id="svg2"
   width="1000"
   height="1000"
   viewBox="0 0 1000 1000"
   xmlns="http://www.w3.org/2000/svg"
   xmlns:svg="http://www.w3.org/2000/svg">
  <defs
     id="defs6">
    <clipPath
       clipPathUnits="userSpaceOnUse"
       id="clipPath18">
      <path
         d="M 0,0 H 3125 V 3125 H 0 Z"
         clip-rule="evenodd"
         id="path16" />
    </clipPath>
    <clipPath
       clipPathUnits="userSpaceOnUse"
       id="clipPath30">
      <path
         d="M 0,0 H 3125 V 3125 H 0 Z"
         clip-rule="evenodd"
         id="path28" />
    </clipPath>
    <clipPath
       clipPathUnits="userSpaceOnUse"
       id="clipPath42">
      <path
         d="M 0,0 H 3125 V 3125 H 0 Z"
         id="path40" />
    </clipPath>
    <clipPath
       clipPathUnits="userSpaceOnUse"
       id="clipPath48">
      <path
         d="M 0,0 H 3125 V 3125 H 0 Z"
         id="path46" />
    </clipPath>
    <clipPath
       clipPathUnits="userSpaceOnUse"
       id="clipPath54">
      <path
         d="M 735.67712,431.65921 H 2552.0835 V 2652.4995 H 735.67712 Z"
         id="path52" />
    </clipPath>
    <clipPath
       clipPathUnits="userSpaceOnUse"
       id="clipPath60">
      <path
         d="M 882.55212,431.65921 H 2405.2085 c 81.1167,0 146.875,65.75818 146.875,146.87497 V 2501.791 c 0,81.117 -65.7583,146.8753 -146.875,146.8753 H 882.55212 c -81.11682,0 -146.875,-65.7583 -146.875,-146.8753 V 578.53418 c 0,-81.11679 65.75818,-146.87497 146.875,-146.87497 z"
         id="path58" />
    </clipPath>
    <clipPath
       clipPathUnits="userSpaceOnUse"
       id="clipPath68">
      <path
         d="M 0,0 H 1818 V 2218 H 0 Z"
         id="path66" />
    </clipPath>
    <clipPath
       clipPathUnits="userSpaceOnUse"
       id="clipPath84">
      <path
         d="M 0,0 H 3125 V 3125 H 0 Z"
         id="path82" />
    </clipPath>
    <clipPath
       clipPathUnits="userSpaceOnUse"
       id="clipPath90">
      <path
         d="M 0,0 H 3125 V 3125 H 0 Z"
         id="path88" />
    </clipPath>
    <clipPath
       clipPathUnits="userSpaceOnUse"
       id="clipPath96">
      <path
         d="m 447.35861,296.8006 h 939.26229 v 921.2689 H 447.35861 Z"
         id="path94" />
    </clipPath>
    <clipPath
       clipPathUnits="userSpaceOnUse"
       id="clipPath102">
      <path
         d="m 594.23364,296.8006 h 644.68006 c 81.1168,0 146.875,65.75818 146.875,146.875 v 627.5189 c 0,81.1168 -65.7582,146.875 -146.875,146.875 H 594.23364 c -81.11682,0 -146.87503,-65.7582 -146.87503,-146.875 V 443.6756 c 0,-81.11682 65.75821,-146.875 146.87503,-146.875 z"
         id="path100" />
    </clipPath>
    <clipPath
       clipPathUnits="userSpaceOnUse"
       id="clipPath110">
      <path
         d="M 0,0 H 939 V 923 H 0 Z"
         id="path108" />
    </clipPath>
    <clipPath
       clipPathUnits="userSpaceOnUse"
       id="clipPath126">
      <path
         d="M 0,0 H 3125 V 3125 H 0 Z"
         id="path124" />
    </clipPath>
    <clipPath
       clipPathUnits="userSpaceOnUse"
       id="clipPath132">
      <path
         d="M 0,0 H 3125 V 3125 H 0 Z"
         id="path130" />
    </clipPath>
    <clipPath
       clipPathUnits="userSpaceOnUse"
       id="clipPath138">
      <path
         d="M 368.76859,267.96875 H 1308.031 V 1189.2376 H 368.76859 Z"
         id="path136" />
    </clipPath>
    <clipPath
       clipPathUnits="userSpaceOnUse"
       id="clipPath144">
      <path
         d="m 515.64355,267.96875 h 644.68005 c 81.1168,0 146.875,65.75818 146.875,146.875 v 627.51885 c 0,81.1169 -65.7582,146.875 -146.875,146.875 H 515.64355 c -81.11679,0 -146.87496,-65.7581 -146.87496,-146.875 V 414.84375 c 0,-81.11682 65.75817,-146.875 146.87496,-146.875 z"
         id="path142" />
    </clipPath>
    <clipPath
       clipPathUnits="userSpaceOnUse"
       id="clipPath152">
      <path
         d="M 0,0 H 940 V 923 H 0 Z"
         id="path150" />
    </clipPath>
    <clipPath
       clipPathUnits="userSpaceOnUse"
       id="clipPath168">
      <path
         d="M 0,0 H 3125 V 3125 H 0 Z"
         id="path166" />
    </clipPath>
    <clipPath
       clipPathUnits="userSpaceOnUse"
       id="clipPath174">
      <path
         d="M 0,0 H 3125 V 3125 H 0 Z"
         id="path172" />
    </clipPath>
    <clipPath
       clipPathUnits="userSpaceOnUse"
       id="clipPath180">
      <path
         d="M 297.39584,230.54317 H 1236.6582 V 1151.812 H 297.39584 Z"
         id="path178" />
    </clipPath>
    <clipPath
       clipPathUnits="userSpaceOnUse"
       id="clipPath186">
      <path
         d="m 444.27084,230.54317 h 644.68006 c 81.1169,0 146.875,65.75816 146.875,146.87498 V 1004.937 c 0,81.1168 -65.7581,146.875 -146.875,146.875 H 444.27084 c -81.11682,0 -146.875,-65.7582 -146.875,-146.875 V 377.41815 c 0,-81.11682 65.75818,-146.87498 146.875,-146.87498 z"
         id="path184" />
    </clipPath>
    <clipPath
       clipPathUnits="userSpaceOnUse"
       id="clipPath194">
      <path
         d="M 0,0 H 939 V 922 H 0 Z"
         id="path192" />
    </clipPath>
    <clipPath
       clipPathUnits="userSpaceOnUse"
       id="clipPath210">
      <path
         d="M 0,0 H 3125 V 3125 H 0 Z"
         id="path208" />
    </clipPath>
    <clipPath
       clipPathUnits="userSpaceOnUse"
       id="clipPath216">
      <path
         d="M 0,0 H 3125 V 3125 H 0 Z"
         id="path214" />
    </clipPath>
    <clipPath
       clipPathUnits="userSpaceOnUse"
       id="clipPath222">
      <path
         d="M 237.40701,178.45982 H 1176.6695 V 1099.7286 H 237.40701 Z"
         id="path220" />
    </clipPath>
    <clipPath
       clipPathUnits="userSpaceOnUse"
       id="clipPath228">
      <path
         d="M 384.28201,178.45982 H 1028.962 c 81.1169,0 146.875,65.75818 146.875,146.87502 V 952.8537 c 0,81.1168 -65.7581,146.8749 -146.875,146.8749 H 384.28201 c -81.11682,0 -146.875,-65.7581 -146.875,-146.8749 V 325.33484 c 0,-81.11684 65.75818,-146.87502 146.875,-146.87502 z"
         id="path226" />
    </clipPath>
    <clipPath
       clipPathUnits="userSpaceOnUse"
       id="clipPath236">
      <path
         d="M 0,0 H 939 V 922 H 0 Z"
         id="path234" />
    </clipPath>
    <clipPath
       clipPathUnits="userSpaceOnUse"
       id="clipPath252">
      <path
         d="M 0,0 H 3125 V 3125 H 0 Z"
         id="path250" />
    </clipPath>
    <clipPath
       clipPathUnits="userSpaceOnUse"
       id="clipPath258">
      <path
         d="M 0,0 H 3125 V 3125 H 0 Z"
         id="path256" />
    </clipPath>
    <clipPath
       clipPathUnits="userSpaceOnUse"
       id="clipPath264">
      <path
         d="m 1901.9717,296.8006 h 939.2625 v 921.2689 h -939.2625 z"
         id="path262" />
    </clipPath>
    <clipPath
       clipPathUnits="userSpaceOnUse"
       id="clipPath270">
      <path
         d="m 2048.8467,296.8006 h 644.6802 c 81.1167,0 146.875,65.75818 146.875,146.875 v 627.5189 c 0,81.1168 -65.7583,146.875 -146.875,146.875 h -644.6802 c -81.1168,0 -146.875,-65.7582 -146.875,-146.875 V 443.6756 c 0,-81.11682 65.7582,-146.875 146.875,-146.875 z"
         id="path268" />
    </clipPath>
    <clipPath
       clipPathUnits="userSpaceOnUse"
       id="clipPath278">
      <path
         d="M 0,0 H 940 V 923 H 0 Z"
         id="path276" />
    </clipPath>
    <clipPath
       clipPathUnits="userSpaceOnUse"
       id="clipPath294">
      <path
         d="M 0,0 H 3125 V 3125 H 0 Z"
         id="path292" />
    </clipPath>
    <clipPath
       clipPathUnits="userSpaceOnUse"
       id="clipPath300">
      <path
         d="M 0,0 H 3125 V 3125 H 0 Z"
         id="path298" />
    </clipPath>
    <clipPath
       clipPathUnits="userSpaceOnUse"
       id="clipPath306">
      <path
         d="m 1946.1494,267.96875 h 939.2624 v 921.26885 h -939.2624 z"
         id="path304" />
    </clipPath>
    <clipPath
       clipPathUnits="userSpaceOnUse"
       id="clipPath312">
      <path
         d="m 2093.0244,267.96875 h 644.6802 c 81.1167,0 146.875,65.75818 146.875,146.875 v 627.51885 c 0,81.1169 -65.7583,146.875 -146.875,146.875 h -644.6802 c -81.1168,0 -146.875,-65.7581 -146.875,-146.875 V 414.84375 c 0,-81.11682 65.7582,-146.875 146.875,-146.875 z"
         id="path310" />
    </clipPath>
    <clipPath
       clipPathUnits="userSpaceOnUse"
       id="clipPath320">
      <path
         d="M 0,0 H 939 V 923 H 0 Z"
         id="path318" />
    </clipPath>
    <clipPath
       clipPathUnits="userSpaceOnUse"
       id="clipPath336">
      <path
         d="M 0,0 H 3125 V 3125 H 0 Z"
         id="path334" />
    </clipPath>
    <clipPath
       clipPathUnits="userSpaceOnUse"
       id="clipPath342">
      <path
         d="M 0,0 H 3125 V 3125 H 0 Z"
         id="path340" />
    </clipPath>
    <clipPath
       clipPathUnits="userSpaceOnUse"
       id="clipPath348">
      <path
         d="M 2016.8525,230.54317 H 2956.115 V 1151.812 h -939.2625 z"
         id="path346" />
    </clipPath>
    <clipPath
       clipPathUnits="userSpaceOnUse"
       id="clipPath354">
      <path
         d="m 2163.7275,230.54317 h 644.6802 c 81.1167,0 146.875,65.75816 146.875,146.87498 V 1004.937 c 0,81.1168 -65.7583,146.875 -146.875,146.875 h -644.6802 c -81.1167,0 -146.875,-65.7582 -146.875,-146.875 V 377.41815 c 0,-81.11682 65.7583,-146.87498 146.875,-146.87498 z"
         id="path352" />
    </clipPath>
    <clipPath
       clipPathUnits="userSpaceOnUse"
       id="clipPath362">
      <path
         d="M 0,0 H 940 V 922 H 0 Z"
         id="path360" />
    </clipPath>
    <clipPath
       clipPathUnits="userSpaceOnUse"
       id="clipPath378">
      <path
         d="M 0,0 H 3125 V 3125 H 0 Z"
         id="path376" />
    </clipPath>
    <clipPath
       clipPathUnits="userSpaceOnUse"
       id="clipPath384">
      <path
         d="M 0,0 H 3125 V 3125 H 0 Z"
         id="path382" />
    </clipPath>
    <clipPath
       clipPathUnits="userSpaceOnUse"
       id="clipPath390">
      <path
         d="m 2082.8682,178.45982 h 939.2625 v 921.26878 h -939.2625 z"
         id="path388" />
    </clipPath>
    <clipPath
       clipPathUnits="userSpaceOnUse"
       id="clipPath396">
      <path
         d="m 2229.7432,178.45982 h 644.6801 c 81.1167,0 146.875,65.75818 146.875,146.87502 V 952.8537 c 0,81.1168 -65.7583,146.8749 -146.875,146.8749 h -644.6801 c -81.1167,0 -146.875,-65.7581 -146.875,-146.8749 V 325.33484 c 0,-81.11684 65.7583,-146.87502 146.875,-146.87502 z"
         id="path394" />
    </clipPath>
    <clipPath
       clipPathUnits="userSpaceOnUse"
       id="clipPath404">
      <path
         d="M 0,0 H 940 V 922 H 0 Z"
         id="path402" />
    </clipPath>
    <clipPath
       clipPathUnits="userSpaceOnUse"
       id="clipPath420">
      <path
         d="M 0,0 H 3125 V 3125 H 0 Z"
         id="path418" />
    </clipPath>
    <clipPath
       clipPathUnits="userSpaceOnUse"
       id="clipPath426">
      <path
         d="M 0,0 H 3125 V 3125 H 0 Z"
         id="path424" />
    </clipPath>
    <clipPath
       clipPathUnits="userSpaceOnUse"
       id="clipPath432">
      <path
         d="m 447.35861,1847.6299 h 939.26229 v 921.2688 H 447.35861 Z"
         id="path430" />
    </clipPath>
    <clipPath
       clipPathUnits="userSpaceOnUse"
       id="clipPath438">
      <path
         d="m 594.23364,1847.6299 h 644.68006 c 81.1168,0 146.875,65.7582 146.875,146.875 v 627.5188 c 0,81.1169 -65.7582,146.875 -146.875,146.875 H 594.23364 c -81.11682,0 -146.87503,-65.7581 -146.87503,-146.875 v -627.5188 c 0,-81.1168 65.75821,-146.875 146.87503,-146.875 z"
         id="path436" />
    </clipPath>
    <clipPath
       clipPathUnits="userSpaceOnUse"
       id="clipPath446">
      <path
         d="M 0,0 H 939 V 922 H 0 Z"
         id="path444" />
    </clipPath>
    <clipPath
       clipPathUnits="userSpaceOnUse"
       id="clipPath462">
      <path
         d="M 0,0 H 3125 V 3125 H 0 Z"
         id="path460" />
    </clipPath>
    <clipPath
       clipPathUnits="userSpaceOnUse"
       id="clipPath468">
      <path
         d="M 0,0 H 3125 V 3125 H 0 Z"
         id="path466" />
    </clipPath>
    <clipPath
       clipPathUnits="userSpaceOnUse"
       id="clipPath474">
      <path
         d="M 368.76859,1921.1681 H 1308.031 V 2842.437 H 368.76859 Z"
         id="path472" />
    </clipPath>
    <clipPath
       clipPathUnits="userSpaceOnUse"
       id="clipPath480">
      <path
         d="m 515.64355,1921.1681 h 644.68005 c 81.1168,0 146.875,65.7582 146.875,146.8749 v 627.519 c 0,81.1167 -65.7582,146.875 -146.875,146.875 H 515.64355 c -81.11679,0 -146.87496,-65.7583 -146.87496,-146.875 v -627.519 c 0,-81.1167 65.75817,-146.8749 146.87496,-146.8749 z"
         id="path478" />
    </clipPath>
    <clipPath
       clipPathUnits="userSpaceOnUse"
       id="clipPath488">
      <path
         d="M 0,0 H 940 V 922 H 0 Z"
         id="path486" />
    </clipPath>
    <clipPath
       clipPathUnits="userSpaceOnUse"
       id="clipPath504">
      <path
         d="M 0,0 H 3125 V 3125 H 0 Z"
         id="path502" />
    </clipPath>
    <clipPath
       clipPathUnits="userSpaceOnUse"
       id="clipPath510">
      <path
         d="M 0,0 H 3125 V 3125 H 0 Z"
         id="path508" />
    </clipPath>
    <clipPath
       clipPathUnits="userSpaceOnUse"
       id="clipPath516">
      <path
         d="m 297.39584,1964.8174 h 939.26236 v 921.2688 H 297.39584 Z"
         id="path514" />
    </clipPath>
    <clipPath
       clipPathUnits="userSpaceOnUse"
       id="clipPath522">
      <path
         d="m 444.27084,1964.8174 h 644.68006 c 81.1169,0 146.875,65.7582 146.875,146.875 v 627.5188 c 0,81.1169 -65.7581,146.875 -146.875,146.875 H 444.27084 c -81.11682,0 -146.875,-65.7581 -146.875,-146.875 v -627.5188 c 0,-81.1168 65.75818,-146.875 146.875,-146.875 z"
         id="path520" />
    </clipPath>
    <clipPath
       clipPathUnits="userSpaceOnUse"
       id="clipPath530">
      <path
         d="M 0,0 H 939 V 923 H 0 Z"
         id="path528" />
    </clipPath>
    <clipPath
       clipPathUnits="userSpaceOnUse"
       id="clipPath546">
      <path
         d="M 0,0 H 3125 V 3125 H 0 Z"
         id="path544" />
    </clipPath>
    <clipPath
       clipPathUnits="userSpaceOnUse"
       id="clipPath552">
      <path
         d="M 0,0 H 3125 V 3125 H 0 Z"
         id="path550" />
    </clipPath>
    <clipPath
       clipPathUnits="userSpaceOnUse"
       id="clipPath558">
      <path
         d="M 206.00819,2025.2712 H 1145.2706 V 2946.54 H 206.00819 Z"
         id="path556" />
    </clipPath>
    <clipPath
       clipPathUnits="userSpaceOnUse"
       id="clipPath564">
      <path
         d="m 352.88318,2025.2712 h 644.68005 c 81.11687,0 146.87497,65.7581 146.87497,146.875 v 627.5188 c 0,81.117 -65.7581,146.875 -146.87497,146.875 H 352.88318 c -81.11682,0 -146.87499,-65.758 -146.87499,-146.875 v -627.5188 c 0,-81.1169 65.75817,-146.875 146.87499,-146.875 z"
         id="path562" />
    </clipPath>
    <clipPath
       clipPathUnits="userSpaceOnUse"
       id="clipPath572">
      <path
         d="M 0,0 H 939 V 922 H 0 Z"
         id="path570" />
    </clipPath>
    <clipPath
       clipPathUnits="userSpaceOnUse"
       id="clipPath588">
      <path
         d="M 0,0 H 3125 V 3125 H 0 Z"
         id="path586" />
    </clipPath>
    <clipPath
       clipPathUnits="userSpaceOnUse"
       id="clipPath594">
      <path
         d="M 0,0 H 3125 V 3125 H 0 Z"
         id="path592" />
    </clipPath>
    <clipPath
       clipPathUnits="userSpaceOnUse"
       id="clipPath600">
      <path
         d="m 1901.9717,1847.6299 h 939.2625 v 921.2688 h -939.2625 z"
         id="path598" />
    </clipPath>
    <clipPath
       clipPathUnits="userSpaceOnUse"
       id="clipPath606">
      <path
         d="m 2048.8467,1847.6299 h 644.6802 c 81.1167,0 146.875,65.7582 146.875,146.875 v 627.5188 c 0,81.1169 -65.7583,146.875 -146.875,146.875 h -644.6802 c -81.1168,0 -146.875,-65.7581 -146.875,-146.875 v -627.5188 c 0,-81.1168 65.7582,-146.875 146.875,-146.875 z"
         id="path604" />
    </clipPath>
    <clipPath
       clipPathUnits="userSpaceOnUse"
       id="clipPath614">
      <path
         d="M 0,0 H 940 V 922 H 0 Z"
         id="path612" />
    </clipPath>
    <clipPath
       clipPathUnits="userSpaceOnUse"
       id="clipPath630">
      <path
         d="M 0,0 H 3125 V 3125 H 0 Z"
         id="path628" />
    </clipPath>
    <clipPath
       clipPathUnits="userSpaceOnUse"
       id="clipPath636">
      <path
         d="M 0,0 H 3125 V 3125 H 0 Z"
         id="path634" />
    </clipPath>
    <clipPath
       clipPathUnits="userSpaceOnUse"
       id="clipPath642">
      <path
         d="m 1974.0513,1921.1681 h 939.2624 v 921.2689 h -939.2624 z"
         id="path640" />
    </clipPath>
    <clipPath
       clipPathUnits="userSpaceOnUse"
       id="clipPath648">
      <path
         d="m 2120.9263,1921.1681 h 644.6801 c 81.1167,0 146.875,65.7582 146.875,146.8749 v 627.519 c 0,81.1167 -65.7583,146.875 -146.875,146.875 h -644.6801 c -81.1169,0 -146.875,-65.7583 -146.875,-146.875 v -627.519 c 0,-81.1167 65.7581,-146.8749 146.875,-146.8749 z"
         id="path646" />
    </clipPath>
    <clipPath
       clipPathUnits="userSpaceOnUse"
       id="clipPath656">
      <path
         d="M 0,0 H 939 V 922 H 0 Z"
         id="path654" />
    </clipPath>
    <clipPath
       clipPathUnits="userSpaceOnUse"
       id="clipPath672">
      <path
         d="M 0,0 H 3125 V 3125 H 0 Z"
         id="path670" />
    </clipPath>
    <clipPath
       clipPathUnits="userSpaceOnUse"
       id="clipPath678">
      <path
         d="M 0,0 H 3125 V 3125 H 0 Z"
         id="path676" />
    </clipPath>
    <clipPath
       clipPathUnits="userSpaceOnUse"
       id="clipPath684">
      <path
         d="m 2054.0549,1964.8174 h 939.2625 v 921.2688 h -939.2625 z"
         id="path682" />
    </clipPath>
    <clipPath
       clipPathUnits="userSpaceOnUse"
       id="clipPath690">
      <path
         d="m 2200.9299,1964.8174 h 644.68 c 81.1169,0 146.875,65.7582 146.875,146.875 v 627.5188 c 0,81.1169 -65.7581,146.875 -146.875,146.875 h -644.68 c -81.1169,0 -146.875,-65.7581 -146.875,-146.875 v -627.5188 c 0,-81.1168 65.7581,-146.875 146.875,-146.875 z"
         id="path688" />
    </clipPath>
    <clipPath
       clipPathUnits="userSpaceOnUse"
       id="clipPath698">
      <path
         d="M 0,0 H 939 V 923 H 0 Z"
         id="path696" />
    </clipPath>
    <clipPath
       clipPathUnits="userSpaceOnUse"
       id="clipPath714">
      <path
         d="M 0,0 H 3125 V 3125 H 0 Z"
         id="path712" />
    </clipPath>
    <clipPath
       clipPathUnits="userSpaceOnUse"
       id="clipPath720">
      <path
         d="M 0,0 H 3125 V 3125 H 0 Z"
         id="path718" />
    </clipPath>
    <clipPath
       clipPathUnits="userSpaceOnUse"
       id="clipPath726">
      <path
         d="m 2129.3713,2025.2712 h 939.2625 V 2946.54 h -939.2625 z"
         id="path724" />
    </clipPath>
    <clipPath
       clipPathUnits="userSpaceOnUse"
       id="clipPath732">
      <path
         d="m 2276.2463,2025.2712 h 644.68 c 81.1169,0 146.875,65.7581 146.875,146.875 v 627.5188 c 0,81.117 -65.7581,146.875 -146.875,146.875 h -644.68 c -81.1169,0 -146.875,-65.758 -146.875,-146.875 v -627.5188 c 0,-81.1169 65.7581,-146.875 146.875,-146.875 z"
         id="path730" />
    </clipPath>
    <clipPath
       clipPathUnits="userSpaceOnUse"
       id="clipPath740">
      <path
         d="M 0,0 H 939 V 922 H 0 Z"
         id="path738" />
    </clipPath>
  </defs>
  <g
     id="g8"
     transform="matrix(1.3333333,0,0,-1.3333333,0,1010.56)">
    <g
       id="g10"
       transform="matrix(0.23999999,0,0,-0.23999999,0,757.91998)">
      <g
         id="g12">
        <g
           id="g14"
           clip-path="url(#clipPath18)">
          <g
             id="g20"
             transform="scale(3.125)">
            <path
               d="M 0,0 H 1000 V 1000 H 0 Z"
               style="fill:#ffffff;fill-opacity:1;fill-rule:nonzero;stroke:none"
               id="path22" />
          </g>
        </g>
      </g>
      <g
         id="g24">
        <g
           id="g26"
           clip-path="url(#clipPath30)">
          <g
             id="g32"
             transform="scale(3.125)">
            <path
               d="M 0,0 H 1000 V 1000 H 0 Z"
               style="fill:#ffffff;fill-opacity:1;fill-rule:nonzero;stroke:none"
               id="path34" />
          </g>
        </g>
      </g>
      <g
         id="g36">
        <g
           id="g38"
           clip-path="url(#clipPath42)">
          <g
             id="g44"
             clip-path="url(#clipPath48)">
            <g
               id="g50"
               clip-path="url(#clipPath54)">
              <g
                 id="g56"
                 clip-path="url(#clipPath60)">
                <g
                   id="g62"
                   transform="translate(735,431)">
                  <g
                     id="g64" />
                  <g
                     id="g76">
                    <g
                       clip-path="url(#clipPath68)"
                       id="g74">
                      <g
                         transform="matrix(7.0953369,0,0,7.0953369,0.67712402,0.65921021)"
                         id="g72">
                        <path
                           d="M 0,0 H 256 V 312 H 0 Z"
                           style="fill:#333333;fill-opacity:1;fill-rule:nonzero;stroke:none"
                           id="path70" />
                      </g>
                    </g>
                  </g>
                </g>
              </g>
            </g>
          </g>
        </g>
      </g>
      <g
         id="g78">
        <g
           id="g80"
           clip-path="url(#clipPath84)">
          <g
             id="g86"
             clip-path="url(#clipPath90)">
            <g
               id="g92"
               clip-path="url(#clipPath96)">
              <g
                 id="g98"
                 clip-path="url(#clipPath102)">
                <g
                   id="g104"
                   transform="translate(447,296)">
                  <g
                     id="g106" />
                  <g
                     id="g118">
                    <g
                       clip-path="url(#clipPath110)"
                       id="g116">
                      <g
                         transform="matrix(3.5987065,0,0,3.5987065,0.35861206,0.80059814)"
                         id="g114">
                        <path
                           d="M 0,0 H 261 V 256 H 0 Z"
                           style="fill:#ffffff;fill-opacity:1;fill-rule:nonzero;stroke:none"
                           id="path112" />
                      </g>
                    </g>
                  </g>
                </g>
              </g>
            </g>
          </g>
        </g>
      </g>
      <g
         id="g120">
        <g
           id="g122"
           clip-path="url(#clipPath126)">
          <g
             id="g128"
             clip-path="url(#clipPath132)">
            <g
               id="g134"
               clip-path="url(#clipPath138)">
              <g
                 id="g140"
                 clip-path="url(#clipPath144)">
                <g
                   id="g146"
                   transform="translate(368,267)">
                  <g
                     id="g148" />
                  <g
                     id="g160">
                    <g
                       clip-path="url(#clipPath152)"
                       id="g158">
                      <g
                         transform="matrix(3.5987065,0,0,3.5987065,0.76858521,0.96875)"
                         id="g156">
                        <path
                           d="M 0,0 H 261 V 256 H 0 Z"
                           style="fill:#333333;fill-opacity:1;fill-rule:nonzero;stroke:none"
                           id="path154" />
                      </g>
                    </g>
                  </g>
                </g>
              </g>
            </g>
          </g>
        </g>
      </g>
      <g
         id="g162">
        <g
           id="g164"
           clip-path="url(#clipPath168)">
          <g
             id="g170"
             clip-path="url(#clipPath174)">
            <g
               id="g176"
               clip-path="url(#clipPath180)">
              <g
                 id="g182"
                 clip-path="url(#clipPath186)">
                <g
                   id="g188"
                   transform="translate(297,230)">
                  <g
                     id="g190" />
                  <g
                     id="g202">
                    <g
                       clip-path="url(#clipPath194)"
                       id="g200">
                      <g
                         transform="matrix(3.5987065,0,0,3.5987065,0.39584351,0.54316711)"
                         id="g198">
                        <path
                           d="M 0,0 H 261 V 256 H 0 Z"
                           style="fill:#ffffff;fill-opacity:1;fill-rule:nonzero;stroke:none"
                           id="path196" />
                      </g>
                    </g>
                  </g>
                </g>
              </g>
            </g>
          </g>
        </g>
      </g>
      <g
         id="g204">
        <g
           id="g206"
           clip-path="url(#clipPath210)">
          <g
             id="g212"
             clip-path="url(#clipPath216)">
            <g
               id="g218"
               clip-path="url(#clipPath222)">
              <g
                 id="g224"
                 clip-path="url(#clipPath228)">
                <g
                   id="g230"
                   transform="translate(237,178)">
                  <g
                     id="g232" />
                  <g
                     id="g244">
                    <g
                       clip-path="url(#clipPath236)"
                       id="g242">
                      <g
                         transform="matrix(3.5987065,0,0,3.5987065,0.40701294,0.45982361)"
                         id="g240">
                        <path
                           d="M 0,0 H 261 V 256 H 0 Z"
                           style="fill:#333333;fill-opacity:1;fill-rule:nonzero;stroke:none"
                           id="path238" />
                      </g>
                    </g>
                  </g>
                </g>
              </g>
            </g>
          </g>
        </g>
      </g>
      <g
         id="g246">
        <g
           id="g248"
           clip-path="url(#clipPath252)">
          <g
             id="g254"
             clip-path="url(#clipPath258)">
            <g
               id="g260"
               clip-path="url(#clipPath264)">
              <g
                 id="g266"
                 clip-path="url(#clipPath270)">
                <g
                   id="g272"
                   transform="translate(1901,296)">
                  <g
                     id="g274" />
                  <g
                     id="g286">
                    <g
                       clip-path="url(#clipPath278)"
                       id="g284">
                      <g
                         transform="matrix(3.5987065,0,0,3.5987065,0.97167969,0.80059814)"
                         id="g282">
                        <path
                           d="M 0,0 H 261 V 256 H 0 Z"
                           style="fill:#ffffff;fill-opacity:1;fill-rule:nonzero;stroke:none"
                           id="path280" />
                      </g>
                    </g>
                  </g>
                </g>
              </g>
            </g>
          </g>
        </g>
      </g>
      <g
         id="g288">
        <g
           id="g290"
           clip-path="url(#clipPath294)">
          <g
             id="g296"
             clip-path="url(#clipPath300)">
            <g
               id="g302"
               clip-path="url(#clipPath306)">
              <g
                 id="g308"
                 clip-path="url(#clipPath312)">
                <g
                   id="g314"
                   transform="translate(1946,267)">
                  <g
                     id="g316" />
                  <g
                     id="g328">
                    <g
                       clip-path="url(#clipPath320)"
                       id="g326">
                      <g
                         transform="matrix(3.5987065,0,0,3.5987065,0.14941406,0.96875)"
                         id="g324">
                        <path
                           d="M 0,0 H 261 V 256 H 0 Z"
                           style="fill:#333333;fill-opacity:1;fill-rule:nonzero;stroke:none"
                           id="path322" />
                      </g>
                    </g>
                  </g>
                </g>
              </g>
            </g>
          </g>
        </g>
      </g>
      <g
         id="g330">
        <g
           id="g332"
           clip-path="url(#clipPath336)">
          <g
             id="g338"
             clip-path="url(#clipPath342)">
            <g
               id="g344"
               clip-path="url(#clipPath348)">
              <g
                 id="g350"
                 clip-path="url(#clipPath354)">
                <g
                   id="g356"
                   transform="translate(2016,230)">
                  <g
                     id="g358" />
                  <g
                     id="g370">
                    <g
                       clip-path="url(#clipPath362)"
                       id="g368">
                      <g
                         transform="matrix(3.5987065,0,0,3.5987065,0.85253906,0.54316711)"
                         id="g366">
                        <path
                           d="M 0,0 H 261 V 256 H 0 Z"
                           style="fill:#ffffff;fill-opacity:1;fill-rule:nonzero;stroke:none"
                           id="path364" />
                      </g>
                    </g>
                  </g>
                </g>
              </g>
            </g>
          </g>
        </g>
      </g>
      <g
         id="g372">
        <g
           id="g374"
           clip-path="url(#clipPath378)">
          <g
             id="g380"
             clip-path="url(#clipPath384)">
            <g
               id="g386"
               clip-path="url(#clipPath390)">
              <g
                 id="g392"
                 clip-path="url(#clipPath396)">
                <g
                   id="g398"
                   transform="translate(2082,178)">
                  <g
                     id="g400" />
                  <g
                     id="g412">
                    <g
                       clip-path="url(#clipPath404)"
                       id="g410">
                      <g
                         transform="matrix(3.5987065,0,0,3.5987065,0.86816406,0.45982361)"
                         id="g408">
                        <path
                           d="M 0,0 H 261 V 256 H 0 Z"
                           style="fill:#333333;fill-opacity:1;fill-rule:nonzero;stroke:none"
                           id="path406" />
                      </g>
                    </g>
                  </g>
                </g>
              </g>
            </g>
          </g>
        </g>
      </g>
      <g
         id="g414">
        <g
           id="g416"
           clip-path="url(#clipPath420)">
          <g
             id="g422"
             clip-path="url(#clipPath426)">
            <g
               id="g428"
               clip-path="url(#clipPath432)">
              <g
                 id="g434"
                 clip-path="url(#clipPath438)">
                <g
                   id="g440"
                   transform="translate(447,1847)">
                  <g
                     id="g442" />
                  <g
                     id="g454">
                    <g
                       clip-path="url(#clipPath446)"
                       id="g452">
                      <g
                         transform="matrix(3.5987065,0,0,3.5987065,0.35861206,0.62988281)"
                         id="g450">
                        <path
                           d="M 0,0 H 261 V 256 H 0 Z"
                           style="fill:#ffffff;fill-opacity:1;fill-rule:nonzero;stroke:none"
                           id="path448" />
                      </g>
                    </g>
                  </g>
                </g>
              </g>
            </g>
          </g>
        </g>
      </g>
      <g
         id="g456">
        <g
           id="g458"
           clip-path="url(#clipPath462)">
          <g
             id="g464"
             clip-path="url(#clipPath468)">
            <g
               id="g470"
               clip-path="url(#clipPath474)">
              <g
                 id="g476"
                 clip-path="url(#clipPath480)">
                <g
                   id="g482"
                   transform="translate(368,1921)">
                  <g
                     id="g484" />
                  <g
                     id="g496">
                    <g
                       clip-path="url(#clipPath488)"
                       id="g494">
                      <g
                         transform="matrix(3.5987065,0,0,3.5987065,0.76858521,0.16809082)"
                         id="g492">
                        <path
                           d="M 0,0 H 261 V 256 H 0 Z"
                           style="fill:#333333;fill-opacity:1;fill-rule:nonzero;stroke:none"
                           id="path490" />
                      </g>
                    </g>
                  </g>
                </g>
              </g>
            </g>
          </g>
        </g>
      </g>
      <g
         id="g498">
        <g
           id="g500"
           clip-path="url(#clipPath504)">
          <g
             id="g506"
             clip-path="url(#clipPath510)">
            <g
               id="g512"
               clip-path="url(#clipPath516)">
              <g
                 id="g518"
                 clip-path="url(#clipPath522)">
                <g
                   id="g524"
                   transform="translate(297,1964)">
                  <g
                     id="g526" />
                  <g
                     id="g538">
                    <g
                       clip-path="url(#clipPath530)"
                       id="g536">
                      <g
                         transform="matrix(3.5987065,0,0,3.5987065,0.39584351,0.81738281)"
                         id="g534">
                        <path
                           d="M 0,0 H 261 V 256 H 0 Z"
                           style="fill:#ffffff;fill-opacity:1;fill-rule:nonzero;stroke:none"
                           id="path532" />
                      </g>
                    </g>
                  </g>
                </g>
              </g>
            </g>
          </g>
        </g>
      </g>
      <g
         id="g540">
        <g
           id="g542"
           clip-path="url(#clipPath546)">
          <g
             id="g548"
             clip-path="url(#clipPath552)">
            <g
               id="g554"
               clip-path="url(#clipPath558)">
              <g
                 id="g560"
                 clip-path="url(#clipPath564)">
                <g
                   id="g566"
                   transform="translate(206,2025)">
                  <g
                     id="g568" />
                  <g
                     id="g580">
                    <g
                       clip-path="url(#clipPath572)"
                       id="g578">
                      <g
                         transform="matrix(3.5987065,0,0,3.5987065,0.00819397,0.27124023)"
                         id="g576">
                        <path
                           d="M 0,0 H 261 V 256 H 0 Z"
                           style="fill:#333333;fill-opacity:1;fill-rule:nonzero;stroke:none"
                           id="path574" />
                      </g>
                    </g>
                  </g>
                </g>
              </g>
            </g>
          </g>
        </g>
      </g>
      <g
         id="g582">
        <g
           id="g584"
           clip-path="url(#clipPath588)">
          <g
             id="g590"
             clip-path="url(#clipPath594)">
            <g
               id="g596"
               clip-path="url(#clipPath600)">
              <g
                 id="g602"
                 clip-path="url(#clipPath606)">
                <g
                   id="g608"
                   transform="translate(1901,1847)">
                  <g
                     id="g610" />
                  <g
                     id="g622">
                    <g
                       clip-path="url(#clipPath614)"
                       id="g620">
                      <g
                         transform="matrix(3.5987065,0,0,3.5987065,0.97167969,0.62988281)"
                         id="g618">
                        <path
                           d="M 0,0 H 261 V 256 H 0 Z"
                           style="fill:#ffffff;fill-opacity:1;fill-rule:nonzero;stroke:none"
                           id="path616" />
                      </g>
                    </g>
                  </g>
                </g>
              </g>
            </g>
          </g>
        </g>
      </g>
      <g
         id="g624">
        <g
           id="g626"
           clip-path="url(#clipPath630)">
          <g
             id="g632"
             clip-path="url(#clipPath636)">
            <g
               id="g638"
               clip-path="url(#clipPath642)">
              <g
                 id="g644"
                 clip-path="url(#clipPath648)">
                <g
                   id="g650"
                   transform="translate(1974,1921)">
                  <g
                     id="g652" />
                  <g
                     id="g664">
                    <g
                       clip-path="url(#clipPath656)"
                       id="g662">
                      <g
                         transform="matrix(3.5987065,0,0,3.5987065,0.05126953,0.16809082)"
                         id="g660">
                        <path
                           d="M 0,0 H 261 V 256 H 0 Z"
                           style="fill:#333333;fill-opacity:1;fill-rule:nonzero;stroke:none"
                           id="path658" />
                      </g>
                    </g>
                  </g>
                </g>
              </g>
            </g>
          </g>
        </g>
      </g>
      <g
         id="g666">
        <g
           id="g668"
           clip-path="url(#clipPath672)">
          <g
             id="g674"
             clip-path="url(#clipPath678)">
            <g
               id="g680"
               clip-path="url(#clipPath684)">
              <g
                 id="g686"
                 clip-path="url(#clipPath690)">
                <g
                   id="g692"
                   transform="translate(2054,1964)">
                  <g
                     id="g694" />
                  <g
                     id="g706">
                    <g
                       clip-path="url(#clipPath698)"
                       id="g704">
                      <g
                         transform="matrix(3.5987065,0,0,3.5987065,0.05493164,0.81738281)"
                         id="g702">
                        <path
                           d="M 0,0 H 261 V 256 H 0 Z"
                           style="fill:#ffffff;fill-opacity:1;fill-rule:nonzero;stroke:none"
                           id="path700" />
                      </g>
                    </g>
                  </g>
                </g>
              </g>
            </g>
          </g>
        </g>
      </g>
      <g
         id="g708">
        <g
           id="g710"
           clip-path="url(#clipPath714)">
          <g
             id="g716"
             clip-path="url(#clipPath720)">
            <g
               id="g722"
               clip-path="url(#clipPath726)">
              <g
                 id="g728"
                 clip-path="url(#clipPath732)">
                <g
                   id="g734"
                   transform="translate(2129,2025)">
                  <g
                     id="g736" />
                  <g
                     id="g748">
                    <g
                       clip-path="url(#clipPath740)"
                       id="g746">
                      <g
                         transform="matrix(3.5987065,0,0,3.5987065,0.37133789,0.27124023)"
                         id="g744">
                        <path
                           d="M 0,0 H 261 V 256 H 0 Z"
                           style="fill:#333333;fill-opacity:1;fill-rule:nonzero;stroke:none"
                           id="path742" />
                      </g>
                    </g>
                  </g>
                </g>
              </g>
            </g>
          </g>
        </g>
      </g>
    </g>
  </g>
</svg>
